<?xml version="1.0" standalone="no"?>
<!DOCTYPE svg PUBLIC "-//W3C//DTD SVG 20010904//EN"
 "http://www.w3.org/TR/2001/REC-SVG-20010904/DTD/svg10.dtd">
<svg version="1.0" xmlns="http://www.w3.org/2000/svg"
 width="500.000000pt" height="500.000000pt" viewBox="0 0 500.000000 500.000000"
 preserveAspectRatio="xMidYMid meet">
<metadata>
Created by potrace 1.11, written by Peter Selinger 2001-2013
</metadata>
<g transform="translate(0.000000,500.000000) scale(0.100000,-0.100000)"
fill="#000000" stroke="none">
<path d="M1388 3815 c-2 -1 -37 -6 -78 -9 -199 -18 -390 -95 -485 -198 -74
-79 -115 -162 -142 -283 -18 -84 -21 -167 -19 -515 1 -341 4 -405 20 -465 71
-280 249 -408 558 -400 146 4 260 23 398 69 41 13 77 22 79 20 3 -2 5 -194 5
-426 1 -475 -8 -432 87 -417 29 5 72 11 94 14 22 3 56 7 75 10 19 3 53 8 75
11 22 3 49 7 60 9 11 1 45 6 75 10 30 3 57 9 60 11 2 3 5 565 5 1250 0 1100
-2 1245 -15 1249 -8 2 -31 7 -50 9 -19 3 -53 8 -75 11 -22 4 -58 8 -80 10 -22
3 -65 7 -95 10 -30 3 -82 8 -115 11 -66 6 -432 13 -437 9z m325 -468 c9 -3 12
-100 10 -413 0 -225 -2 -415 -2 -422 -1 -7 -12 -17 -26 -22 -14 -5 -44 -18
-68 -29 -35 -16 -66 -27 -107 -36 -3 -1 -16 -5 -30 -8 -94 -26 -207 -7 -252
40 -46 49 -50 84 -46 413 3 288 4 308 25 352 34 75 98 111 228 131 30 4 254 0
268 -6z"/>
<path d="M3678 3814 c-2 -1 -21 -5 -43 -8 -100 -15 -240 -66 -354 -127 -40
-22 -75 -38 -77 -36 -2 2 -14 32 -28 68 l-24 64 -210 3 -210 2 0 -1299 0
-1300 41 5 c46 6 77 10 182 25 39 5 86 12 105 14 19 2 51 7 70 10 19 2 55 7
80 11 25 3 47 9 50 14 3 4 5 171 5 370 l0 361 35 -5 c19 -2 42 -7 50 -10 16
-5 67 -12 170 -23 81 -9 293 -9 340 -1 70 13 91 19 141 39 134 52 233 161 284
312 36 106 42 193 39 597 -1 217 -5 411 -8 430 -19 94 -41 161 -73 222 -89
171 -239 256 -460 262 -57 2 -104 2 -105 0z m30 -481 c38 -18 66 -55 79 -103
5 -19 9 -181 8 -360 -1 -319 -1 -326 -24 -373 -34 -70 -79 -91 -196 -89 -49 0
-103 3 -120 6 -16 3 -52 9 -80 12 -27 4 -63 12 -80 18 l-30 12 0 381 0 380 45
30 c144 98 301 132 398 86z"/>
</g>
</svg>
