<?xml version="1.0" standalone="no"?>
<!DOCTYPE svg PUBLIC "-//W3C//DTD SVG 20010904//EN"
		"http://www.w3.org/TR/2001/REC-SVG-20010904/DTD/svg10.dtd">
<svg version="1.0" xmlns="http://www.w3.org/2000/svg"
	 width="500.000000pt" height="500.000000pt" viewBox="0 0 500.000000 500.000000"
	 preserveAspectRatio="xMidYMid meet">
	<metadata>
		Created by potrace 1.11, written by Peter Selinger 2001-2013
	</metadata>
	<g transform="translate(0.000000,500.000000) scale(0.100000,-0.100000)"
	   fill="#000000" stroke="none">
		<path d="M3337 3894 c-1 -1 -51 -5 -112 -8 -120 -6 -182 -12 -290 -26 -38 -5
-92 -12 -120 -15 -27 -3 -59 -8 -70 -11 l-21 -5 0 -1280 c1 -861 4 -1279 11
-1280 5 0 17 -2 25 -4 8 -1 53 -8 100 -14 47 -6 94 -13 106 -15 12 -2 45 -7
75 -11 85 -9 130 -16 179 -25 25 -5 47 -7 49 -5 2 2 3 202 3 444 0 243 0 441
1 441 1 0 26 -9 55 -20 53 -20 199 -57 257 -66 308 -43 505 1 635 142 56 60
107 172 129 280 16 77 19 142 19 464 0 394 -4 462 -43 590 -34 113 -109 215
-204 279 -73 49 -109 65 -211 94 -81 23 -115 30 -220 43 -44 6 -348 13 -353 8z
m246 -479 c88 -9 163 -49 200 -105 32 -49 38 -120 38 -410 0 -157 -3 -298 -6
-315 -30 -152 -222 -175 -487 -58 l-56 26 1 430 2 430 50 5 c28 2 51 4 52 5 3
4 152 -2 206 -8z"/>
		<path d="M1417 3884 c-1 -1 -42 -5 -92 -8 -255 -18 -444 -86 -558 -199 -71
-72 -138 -199 -153 -292 -3 -21 -8 -47 -12 -59 -9 -35 -12 -817 -3 -866 5 -25
11 -58 14 -75 3 -16 14 -56 25 -88 53 -150 151 -250 291 -298 166 -58 451 -41
685 40 33 12 62 21 66 21 4 0 8 -196 8 -435 0 -240 2 -438 4 -441 3 -2 83 6
179 20 96 13 194 27 219 30 52 7 97 14 125 21 20 4 20 8 20 1281 l0 1278 -26
7 c-23 6 -71 13 -159 24 -14 2 -56 6 -95 9 -38 4 -81 9 -95 11 -37 7 -438 23
-443 19z m244 -482 l27 -2 0 -430 -1 -430 -56 -25 c-186 -86 -352 -99 -434
-35 -53 42 -58 77 -57 394 0 160 3 307 6 326 15 97 81 167 181 193 44 11 216
15 334 9z"/>
	</g>
</svg>
